%TF.GenerationSoftware,KiCad,Pcbnew,6.0.10-86aedd382b~118~ubuntu22.10.1*%
%TF.CreationDate,2023-02-01T22:33:22-08:00*%
%TF.ProjectId,lightBoard,6c696768-7442-46f6-9172-642e6b696361,rev?*%
%TF.SameCoordinates,Original*%
%TF.FileFunction,Legend,Bot*%
%TF.FilePolarity,Positive*%
%FSLAX46Y46*%
G04 Gerber Fmt 4.6, Leading zero omitted, Abs format (unit mm)*
G04 Created by KiCad (PCBNEW 6.0.10-86aedd382b~118~ubuntu22.10.1) date 2023-02-01 22:33:22*
%MOMM*%
%LPD*%
G01*
G04 APERTURE LIST*
%ADD10C,0.120000*%
G04 APERTURE END LIST*
D10*
%TO.C,R12*%
X123163000Y-46963064D02*
X123163000Y-46508936D01*
X121693000Y-46963064D02*
X121693000Y-46508936D01*
%TO.C,R11*%
X127481000Y-64489064D02*
X127481000Y-64034936D01*
X126011000Y-64489064D02*
X126011000Y-64034936D01*
%TO.C,R10*%
X120676936Y-50773000D02*
X121131064Y-50773000D01*
X120676936Y-49303000D02*
X121131064Y-49303000D01*
%TO.C,R9*%
X124233000Y-46812564D02*
X124233000Y-46358436D01*
X125703000Y-46812564D02*
X125703000Y-46358436D01*
%TO.C,R8*%
X123217000Y-60224936D02*
X123217000Y-60679064D01*
X124687000Y-60224936D02*
X124687000Y-60679064D01*
%TO.C,R7*%
X122963000Y-50676436D02*
X122963000Y-51130564D01*
X124433000Y-50676436D02*
X124433000Y-51130564D01*
%TO.C,R5*%
X139219000Y-48794936D02*
X139219000Y-49249064D01*
X140689000Y-48794936D02*
X140689000Y-49249064D01*
%TO.C,R4*%
X137948936Y-62965000D02*
X138403064Y-62965000D01*
X137948936Y-61495000D02*
X138403064Y-61495000D01*
%TO.C,R3*%
X138911064Y-69569000D02*
X138456936Y-69569000D01*
X138911064Y-68099000D02*
X138456936Y-68099000D01*
%TO.C,R2*%
X138403000Y-51027064D02*
X138403000Y-50572936D01*
X136933000Y-51027064D02*
X136933000Y-50572936D01*
%TO.C,R1*%
X138139936Y-60473000D02*
X138594064Y-60473000D01*
X138139936Y-59003000D02*
X138594064Y-59003000D01*
%TO.C,Q6*%
X122936000Y-44486000D02*
X123586000Y-44486000D01*
X122936000Y-41366000D02*
X124611000Y-41366000D01*
X122936000Y-44486000D02*
X122286000Y-44486000D01*
X122936000Y-41366000D02*
X122286000Y-41366000D01*
%TO.C,Q5*%
X123190000Y-62702000D02*
X122540000Y-62702000D01*
X123190000Y-65822000D02*
X122540000Y-65822000D01*
X123190000Y-62702000D02*
X124865000Y-62702000D01*
X123190000Y-65822000D02*
X123840000Y-65822000D01*
%TO.C,Q4*%
X122857500Y-53050000D02*
X122207500Y-53050000D01*
X122857500Y-56170000D02*
X122207500Y-56170000D01*
X122857500Y-53050000D02*
X124532500Y-53050000D01*
X122857500Y-56170000D02*
X123507500Y-56170000D01*
%TO.C,Q2*%
X138430000Y-45176000D02*
X137780000Y-45176000D01*
X138430000Y-48296000D02*
X136755000Y-48296000D01*
X138430000Y-45176000D02*
X139080000Y-45176000D01*
X138430000Y-48296000D02*
X139080000Y-48296000D01*
%TO.C,Q1*%
X138682000Y-58202000D02*
X139332000Y-58202000D01*
X138682000Y-55082000D02*
X139332000Y-55082000D01*
X138682000Y-58202000D02*
X137007000Y-58202000D01*
X138682000Y-55082000D02*
X138032000Y-55082000D01*
%TD*%
M02*
