M48
; DRILL file {KiCad 6.0.10-86aedd382b~118~ubuntu22.10.1} date Wed 01 Feb 2023 10:33:26 PM PST
; FORMAT={-:-/ absolute / inch / decimal}
; #@! TF.CreationDate,2023-02-01T22:33:26-08:00
; #@! TF.GenerationSoftware,Kicad,Pcbnew,6.0.10-86aedd382b~118~ubuntu22.10.1
; #@! TF.FileFunction,Plated,1,2,PTH
FMAT,2
INCH
; #@! TA.AperFunction,Plated,PTH,ViaDrill
T1C0.0157
; #@! TA.AperFunction,Plated,PTH,ComponentDrill
T2C0.0315
; #@! TA.AperFunction,Plated,PTH,ComponentDrill
T3C0.0520
%
G90
G05
T1
X4.36Y-2.18
X4.86Y-1.45
X5.14Y-1.66
X5.14Y-2.15
X5.14Y-2.45
X5.35Y-2.71
X5.43Y-1.66
X5.48Y-1.46
X5.93Y-2.18
T2
X4.9896Y-1.9996
X4.9896Y-2.0996
X4.9896Y-2.1996
X4.9896Y-2.2996
X5.2896Y-1.9996
X5.2896Y-2.0996
X5.2896Y-2.1996
X5.2896Y-2.2996
T3
X4.67Y-1.6052
X4.67Y-1.802
X4.67Y-2.062
X4.67Y-2.2589
X4.67Y-2.522
X4.67Y-2.7189
X5.04Y-1.66
X5.2369Y-1.66
X5.63Y-1.6023
X5.63Y-1.7991
X5.63Y-2.0523
X5.63Y-2.2491
X5.63Y-2.5231
X5.63Y-2.72
T0
M30
