%TF.GenerationSoftware,KiCad,Pcbnew,6.0.10-86aedd382b~118~ubuntu22.10.1*%
%TF.CreationDate,2023-02-01T22:33:22-08:00*%
%TF.ProjectId,lightBoard,6c696768-7442-46f6-9172-642e6b696361,rev?*%
%TF.SameCoordinates,Original*%
%TF.FileFunction,Legend,Top*%
%TF.FilePolarity,Positive*%
%FSLAX46Y46*%
G04 Gerber Fmt 4.6, Leading zero omitted, Abs format (unit mm)*
G04 Created by KiCad (PCBNEW 6.0.10-86aedd382b~118~ubuntu22.10.1) date 2023-02-01 22:33:22*
%MOMM*%
%LPD*%
G01*
G04 APERTURE LIST*
%ADD10C,0.150000*%
%ADD11C,0.000000*%
%ADD12C,0.120000*%
G04 APERTURE END LIST*
D10*
X150066476Y-70048380D02*
X149971238Y-70000761D01*
X149923619Y-69953142D01*
X149876000Y-69857904D01*
X149876000Y-69572190D01*
X149923619Y-69476952D01*
X149971238Y-69429333D01*
X150066476Y-69381714D01*
X150209333Y-69381714D01*
X150304571Y-69429333D01*
X150352190Y-69476952D01*
X150399809Y-69572190D01*
X150399809Y-69857904D01*
X150352190Y-69953142D01*
X150304571Y-70000761D01*
X150209333Y-70048380D01*
X150066476Y-70048380D01*
X151256952Y-69381714D02*
X151256952Y-70048380D01*
X150828380Y-69381714D02*
X150828380Y-69905523D01*
X150876000Y-70000761D01*
X150971238Y-70048380D01*
X151114095Y-70048380D01*
X151209333Y-70000761D01*
X151256952Y-69953142D01*
X151590285Y-69381714D02*
X151971238Y-69381714D01*
X151733142Y-69048380D02*
X151733142Y-69905523D01*
X151780761Y-70000761D01*
X151876000Y-70048380D01*
X151971238Y-70048380D01*
X150439523Y-64047714D02*
X150439523Y-64857238D01*
X150391904Y-64952476D01*
X150344285Y-65000095D01*
X150249047Y-65047714D01*
X150106190Y-65047714D01*
X150010952Y-65000095D01*
X150439523Y-64666761D02*
X150344285Y-64714380D01*
X150153809Y-64714380D01*
X150058571Y-64666761D01*
X150010952Y-64619142D01*
X149963333Y-64523904D01*
X149963333Y-64238190D01*
X150010952Y-64142952D01*
X150058571Y-64095333D01*
X150153809Y-64047714D01*
X150344285Y-64047714D01*
X150439523Y-64095333D01*
X150915714Y-64047714D02*
X150915714Y-64714380D01*
X150915714Y-64142952D02*
X150963333Y-64095333D01*
X151058571Y-64047714D01*
X151201428Y-64047714D01*
X151296666Y-64095333D01*
X151344285Y-64190571D01*
X151344285Y-64714380D01*
X152249047Y-64714380D02*
X152249047Y-63714380D01*
X152249047Y-64666761D02*
X152153809Y-64714380D01*
X151963333Y-64714380D01*
X151868095Y-64666761D01*
X151820476Y-64619142D01*
X151772857Y-64523904D01*
X151772857Y-64238190D01*
X151820476Y-64142952D01*
X151868095Y-64095333D01*
X151963333Y-64047714D01*
X152153809Y-64047714D01*
X152249047Y-64095333D01*
X132969047Y-34615428D02*
X133730952Y-34615428D01*
X127635047Y-34615428D02*
X128396952Y-34615428D01*
X128016000Y-34996380D02*
X128016000Y-34234476D01*
D11*
G36*
X128501030Y-70262147D02*
G01*
X128502156Y-70237272D01*
X128504021Y-70212610D01*
X128506613Y-70188167D01*
X128509921Y-70163952D01*
X128513935Y-70139973D01*
X128518643Y-70116238D01*
X128524034Y-70092756D01*
X128530099Y-70069533D01*
X128536825Y-70046580D01*
X128544203Y-70023903D01*
X128552221Y-70001511D01*
X128560868Y-69979413D01*
X128570134Y-69957615D01*
X128580007Y-69936127D01*
X128590478Y-69914956D01*
X128580007Y-69893785D01*
X128570134Y-69872296D01*
X128560868Y-69850498D01*
X128552221Y-69828399D01*
X128544203Y-69806008D01*
X128536825Y-69783331D01*
X128530099Y-69760377D01*
X128524034Y-69737155D01*
X128518643Y-69713673D01*
X128513935Y-69689938D01*
X128509921Y-69665959D01*
X128506613Y-69641744D01*
X128504021Y-69617301D01*
X128502156Y-69592639D01*
X128501030Y-69567764D01*
X128500666Y-69543613D01*
X129067389Y-69543613D01*
X129067712Y-69556383D01*
X129068671Y-69568986D01*
X129070249Y-69581405D01*
X129072432Y-69593626D01*
X129075203Y-69605633D01*
X129078548Y-69617409D01*
X129082450Y-69628940D01*
X129086894Y-69640210D01*
X129091864Y-69651204D01*
X129097345Y-69661904D01*
X129103322Y-69672297D01*
X129109777Y-69682367D01*
X129116697Y-69692097D01*
X129124065Y-69701473D01*
X129131866Y-69710478D01*
X129140083Y-69719097D01*
X129148703Y-69727315D01*
X129157708Y-69735116D01*
X129167084Y-69742484D01*
X129176814Y-69749403D01*
X129186883Y-69755859D01*
X129197276Y-69761835D01*
X129207977Y-69767316D01*
X129218971Y-69772287D01*
X129230241Y-69776731D01*
X129241772Y-69780633D01*
X129253548Y-69783977D01*
X129265555Y-69786749D01*
X129277776Y-69788932D01*
X129290195Y-69790510D01*
X129302798Y-69791468D01*
X129315568Y-69791791D01*
X131797360Y-69791791D01*
X131810130Y-69791468D01*
X131822733Y-69790510D01*
X131835152Y-69788932D01*
X131847373Y-69786749D01*
X131859380Y-69783977D01*
X131871156Y-69780633D01*
X131882687Y-69776731D01*
X131893957Y-69772287D01*
X131904951Y-69767316D01*
X131915652Y-69761835D01*
X131926045Y-69755859D01*
X131936114Y-69749403D01*
X131945844Y-69742484D01*
X131955220Y-69735116D01*
X131964225Y-69727315D01*
X131972845Y-69719097D01*
X131981062Y-69710478D01*
X131988863Y-69701473D01*
X131996231Y-69692097D01*
X132003151Y-69682367D01*
X132009607Y-69672297D01*
X132015583Y-69661904D01*
X132021064Y-69651204D01*
X132026034Y-69640210D01*
X132030478Y-69628940D01*
X132034380Y-69617409D01*
X132037725Y-69605633D01*
X132040496Y-69593626D01*
X132042679Y-69581405D01*
X132044257Y-69568986D01*
X132045216Y-69556383D01*
X132045539Y-69543613D01*
X132045216Y-69530842D01*
X132044257Y-69518240D01*
X132042679Y-69505820D01*
X132040496Y-69493599D01*
X132037725Y-69481593D01*
X132034380Y-69469816D01*
X132030478Y-69458285D01*
X132026034Y-69447015D01*
X132021064Y-69436022D01*
X132015583Y-69425321D01*
X132009607Y-69414928D01*
X132003151Y-69404858D01*
X131996231Y-69395128D01*
X131988863Y-69385752D01*
X131981062Y-69376747D01*
X131972845Y-69368128D01*
X131964225Y-69359910D01*
X131955220Y-69352109D01*
X131945844Y-69344741D01*
X131936114Y-69337822D01*
X131926045Y-69331366D01*
X131915652Y-69325390D01*
X131904951Y-69319909D01*
X131893957Y-69314938D01*
X131882687Y-69310494D01*
X131871156Y-69306592D01*
X131859380Y-69303247D01*
X131847373Y-69300476D01*
X131835152Y-69298293D01*
X131822733Y-69296715D01*
X131810130Y-69295756D01*
X131797360Y-69295433D01*
X129315568Y-69295433D01*
X129302798Y-69295756D01*
X129290195Y-69296715D01*
X129277776Y-69298293D01*
X129265555Y-69300476D01*
X129253548Y-69303247D01*
X129241772Y-69306592D01*
X129230241Y-69310494D01*
X129218971Y-69314938D01*
X129207977Y-69319909D01*
X129197276Y-69325390D01*
X129186883Y-69331366D01*
X129176814Y-69337822D01*
X129167084Y-69344741D01*
X129157708Y-69352109D01*
X129148703Y-69359910D01*
X129140083Y-69368128D01*
X129131866Y-69376747D01*
X129124065Y-69385752D01*
X129116697Y-69395128D01*
X129109777Y-69404858D01*
X129103322Y-69414928D01*
X129097345Y-69425321D01*
X129091864Y-69436022D01*
X129086894Y-69447015D01*
X129082450Y-69458285D01*
X129078548Y-69469816D01*
X129075203Y-69481593D01*
X129072432Y-69493599D01*
X129070249Y-69505820D01*
X129068671Y-69518240D01*
X129067712Y-69530842D01*
X129067389Y-69543613D01*
X128500666Y-69543613D01*
X128500652Y-69542687D01*
X128500976Y-69519507D01*
X128501943Y-69496507D01*
X128503545Y-69473692D01*
X128505774Y-69451066D01*
X128508621Y-69428636D01*
X128512079Y-69406406D01*
X128516139Y-69384383D01*
X128520793Y-69362571D01*
X128526033Y-69340977D01*
X128531851Y-69319605D01*
X128538239Y-69298460D01*
X128545189Y-69277549D01*
X128552691Y-69256877D01*
X128560740Y-69236449D01*
X128569325Y-69216270D01*
X128578439Y-69196347D01*
X128567426Y-69176197D01*
X128556967Y-69155690D01*
X128547071Y-69134838D01*
X128537751Y-69113654D01*
X128529017Y-69092150D01*
X128520880Y-69070338D01*
X128513350Y-69048231D01*
X128506439Y-69025839D01*
X128500158Y-69003177D01*
X128494517Y-68980255D01*
X128489526Y-68957087D01*
X128485198Y-68933684D01*
X128481543Y-68910058D01*
X128478571Y-68886222D01*
X128476294Y-68862188D01*
X128474722Y-68837969D01*
X128461428Y-68731497D01*
X128445588Y-68630897D01*
X128427329Y-68535701D01*
X128406774Y-68445443D01*
X128384049Y-68359656D01*
X128359278Y-68277873D01*
X128332587Y-68199628D01*
X128304099Y-68124454D01*
X128273940Y-68051884D01*
X128242235Y-67981453D01*
X128209108Y-67912692D01*
X128174685Y-67845137D01*
X128102446Y-67711772D01*
X128026518Y-67577626D01*
X127934576Y-67413948D01*
X127843133Y-67241415D01*
X127798731Y-67150716D01*
X127755814Y-67056467D01*
X127714833Y-66958226D01*
X127676243Y-66855545D01*
X127640496Y-66747982D01*
X127608045Y-66635090D01*
X127579344Y-66516424D01*
X127554845Y-66391541D01*
X127535001Y-66259994D01*
X127520266Y-66121339D01*
X127511093Y-65975131D01*
X127507935Y-65820925D01*
X128074673Y-65820925D01*
X128077010Y-65944002D01*
X128083841Y-66060554D01*
X128094896Y-66171040D01*
X128109906Y-66275921D01*
X128128599Y-66375654D01*
X128150707Y-66470699D01*
X128175960Y-66561515D01*
X128204087Y-66648560D01*
X128267884Y-66813177D01*
X128339940Y-66968220D01*
X128418095Y-67117363D01*
X128500189Y-67264277D01*
X128667556Y-67566107D01*
X128748511Y-67728367D01*
X128824766Y-67903087D01*
X128860457Y-67996266D01*
X128894163Y-68093938D01*
X128925615Y-68196560D01*
X128954542Y-68304593D01*
X128980675Y-68418494D01*
X129003744Y-68538723D01*
X129023478Y-68665739D01*
X129039608Y-68800002D01*
X129040534Y-68800002D01*
X129040857Y-68812772D01*
X129041816Y-68825374D01*
X129043394Y-68837794D01*
X129045577Y-68850015D01*
X129048348Y-68862021D01*
X129051693Y-68873798D01*
X129055595Y-68885329D01*
X129060039Y-68896599D01*
X129065009Y-68907592D01*
X129070490Y-68918293D01*
X129076467Y-68928686D01*
X129082922Y-68938755D01*
X129089842Y-68948486D01*
X129097210Y-68957861D01*
X129105011Y-68966867D01*
X129113228Y-68975486D01*
X129121848Y-68983704D01*
X129130853Y-68991504D01*
X129140229Y-68998872D01*
X129149959Y-69005792D01*
X129160028Y-69012248D01*
X129170421Y-69018224D01*
X129181122Y-69023705D01*
X129192116Y-69028675D01*
X129203385Y-69033119D01*
X129214917Y-69037022D01*
X129226693Y-69040366D01*
X129238700Y-69043138D01*
X129250921Y-69045320D01*
X129263340Y-69046899D01*
X129275943Y-69047857D01*
X129288713Y-69048180D01*
X131824215Y-69048180D01*
X131836986Y-69047857D01*
X131849588Y-69046899D01*
X131862008Y-69045320D01*
X131874229Y-69043138D01*
X131886235Y-69040366D01*
X131898012Y-69037022D01*
X131909543Y-69033119D01*
X131920813Y-69028675D01*
X131931806Y-69023705D01*
X131942507Y-69018224D01*
X131952900Y-69012248D01*
X131962970Y-69005792D01*
X131972700Y-68998872D01*
X131982076Y-68991504D01*
X131991081Y-68983704D01*
X131999700Y-68975486D01*
X132007918Y-68966867D01*
X132015719Y-68957861D01*
X132023087Y-68948486D01*
X132030006Y-68938755D01*
X132036462Y-68928686D01*
X132042438Y-68918293D01*
X132047919Y-68907592D01*
X132052890Y-68896599D01*
X132057334Y-68885329D01*
X132061236Y-68873798D01*
X132064580Y-68862021D01*
X132067352Y-68850015D01*
X132069535Y-68837794D01*
X132071113Y-68825374D01*
X132072072Y-68812772D01*
X132072395Y-68800002D01*
X132088609Y-68665824D01*
X132108422Y-68538886D01*
X132131564Y-68418731D01*
X132157766Y-68304898D01*
X132186757Y-68196930D01*
X132218268Y-68094367D01*
X132252030Y-67996751D01*
X132287771Y-67903622D01*
X132364117Y-67728992D01*
X132445146Y-67566807D01*
X132612624Y-67265087D01*
X132694756Y-67118211D01*
X132772939Y-66969097D01*
X132845015Y-66814074D01*
X132878089Y-66733200D01*
X132908827Y-66649472D01*
X132936958Y-66562431D01*
X132962214Y-66471619D01*
X132984325Y-66376577D01*
X133003021Y-66276845D01*
X133018031Y-66171966D01*
X133029087Y-66061479D01*
X133035918Y-65944927D01*
X133038255Y-65821851D01*
X133035026Y-65694148D01*
X133025441Y-65568121D01*
X133009657Y-65443925D01*
X132987830Y-65321716D01*
X132960115Y-65201651D01*
X132926669Y-65083885D01*
X132887648Y-64968574D01*
X132843208Y-64855874D01*
X132793504Y-64745942D01*
X132738694Y-64638932D01*
X132678932Y-64535003D01*
X132614374Y-64434308D01*
X132545178Y-64337005D01*
X132471498Y-64243249D01*
X132393491Y-64153196D01*
X132311313Y-64067002D01*
X132225119Y-63984824D01*
X132135067Y-63906817D01*
X132041311Y-63833137D01*
X131944007Y-63763941D01*
X131843313Y-63699384D01*
X131739383Y-63639622D01*
X131632374Y-63584811D01*
X131522441Y-63535107D01*
X131409742Y-63490667D01*
X131294431Y-63451646D01*
X131176664Y-63418200D01*
X131056599Y-63390486D01*
X130934390Y-63368658D01*
X130810194Y-63352874D01*
X130684167Y-63343289D01*
X130556464Y-63340060D01*
X130428761Y-63343287D01*
X130302734Y-63352864D01*
X130178538Y-63368635D01*
X130056329Y-63390446D01*
X129936264Y-63418139D01*
X129818498Y-63451560D01*
X129703187Y-63490553D01*
X129590487Y-63534963D01*
X129480555Y-63584632D01*
X129373545Y-63639407D01*
X129269616Y-63699130D01*
X129168921Y-63763648D01*
X129071618Y-63832803D01*
X128977862Y-63906440D01*
X128887809Y-63984404D01*
X128801615Y-64066539D01*
X128719437Y-64152690D01*
X128641430Y-64242699D01*
X128567750Y-64336413D01*
X128498554Y-64433675D01*
X128433996Y-64534330D01*
X128374234Y-64638221D01*
X128319424Y-64745194D01*
X128269720Y-64855093D01*
X128225280Y-64967761D01*
X128186259Y-65083044D01*
X128152813Y-65200786D01*
X128125098Y-65320830D01*
X128103271Y-65443022D01*
X128087487Y-65567206D01*
X128077902Y-65693225D01*
X128074673Y-65820925D01*
X127507935Y-65820925D01*
X127511910Y-65664303D01*
X127523706Y-65509707D01*
X127543130Y-65357332D01*
X127569989Y-65207370D01*
X127604089Y-65060015D01*
X127645238Y-64915459D01*
X127693243Y-64773896D01*
X127747910Y-64635520D01*
X127809046Y-64500522D01*
X127876458Y-64369096D01*
X127949953Y-64241436D01*
X128029338Y-64117734D01*
X128114419Y-63998184D01*
X128205004Y-63882978D01*
X128300900Y-63772310D01*
X128401912Y-63666374D01*
X128507849Y-63565361D01*
X128618517Y-63469466D01*
X128733722Y-63378881D01*
X128853273Y-63293799D01*
X128976975Y-63214414D01*
X129104635Y-63140919D01*
X129236061Y-63073507D01*
X129371058Y-63012371D01*
X129509435Y-62957704D01*
X129650998Y-62909700D01*
X129795554Y-62868551D01*
X129942909Y-62834450D01*
X130092871Y-62807591D01*
X130245246Y-62788167D01*
X130399841Y-62776371D01*
X130556464Y-62772396D01*
X130713087Y-62776371D01*
X130867682Y-62788167D01*
X131020057Y-62807591D01*
X131170017Y-62834450D01*
X131317371Y-62868551D01*
X131461924Y-62909700D01*
X131603483Y-62957704D01*
X131741855Y-63012371D01*
X131876847Y-63073507D01*
X132008265Y-63140919D01*
X132135916Y-63214414D01*
X132259607Y-63293799D01*
X132379144Y-63378881D01*
X132494334Y-63469466D01*
X132604984Y-63565361D01*
X132710900Y-63666374D01*
X132811889Y-63772310D01*
X132907759Y-63882978D01*
X132998315Y-63998184D01*
X133083364Y-64117734D01*
X133162713Y-64241436D01*
X133236169Y-64369096D01*
X133303538Y-64500522D01*
X133364627Y-64635520D01*
X133419243Y-64773896D01*
X133467193Y-64915459D01*
X133508282Y-65060015D01*
X133542318Y-65207370D01*
X133569108Y-65357332D01*
X133588459Y-65509707D01*
X133600176Y-65664303D01*
X133604066Y-65820925D01*
X133600918Y-65974979D01*
X133591773Y-66121073D01*
X133577079Y-66259650D01*
X133557287Y-66391150D01*
X133532844Y-66516014D01*
X133504200Y-66634683D01*
X133471804Y-66747597D01*
X133436105Y-66855198D01*
X133397552Y-66957926D01*
X133356594Y-67056223D01*
X133313680Y-67150529D01*
X133269259Y-67241285D01*
X133177691Y-67413910D01*
X133085483Y-67577626D01*
X133009555Y-67712036D01*
X132937316Y-67845513D01*
X132869766Y-67981811D01*
X132838061Y-68052192D01*
X132807902Y-68124686D01*
X132779414Y-68199762D01*
X132752723Y-68277891D01*
X132727952Y-68359541D01*
X132705227Y-68445183D01*
X132684672Y-68535284D01*
X132666413Y-68630315D01*
X132650573Y-68730745D01*
X132637278Y-68837043D01*
X132635870Y-68861263D01*
X132633735Y-68885299D01*
X132630888Y-68909139D01*
X132627338Y-68932773D01*
X132623100Y-68956190D01*
X132618185Y-68979379D01*
X132612605Y-69002329D01*
X132606372Y-69025029D01*
X132599500Y-69047470D01*
X132591999Y-69069639D01*
X132583882Y-69091525D01*
X132575162Y-69113119D01*
X132565850Y-69134409D01*
X132555959Y-69155384D01*
X132545501Y-69176034D01*
X132534488Y-69196347D01*
X132543603Y-69216118D01*
X132552188Y-69236183D01*
X132560236Y-69256533D01*
X132567739Y-69277159D01*
X132574689Y-69298050D01*
X132581076Y-69319198D01*
X132586894Y-69340592D01*
X132592135Y-69362224D01*
X132596789Y-69384084D01*
X132600849Y-69406162D01*
X132604307Y-69428450D01*
X132607154Y-69450936D01*
X132609383Y-69473613D01*
X132610985Y-69496469D01*
X132611952Y-69519497D01*
X132612276Y-69542687D01*
X132611888Y-69567764D01*
X132610731Y-69592639D01*
X132608821Y-69617301D01*
X132606170Y-69641744D01*
X132602792Y-69665959D01*
X132598700Y-69689938D01*
X132593909Y-69713673D01*
X132588431Y-69737155D01*
X132582280Y-69760378D01*
X132575470Y-69783331D01*
X132568014Y-69806008D01*
X132559926Y-69828400D01*
X132551219Y-69850499D01*
X132541908Y-69872296D01*
X132532005Y-69893785D01*
X132521524Y-69914956D01*
X132532158Y-69936127D01*
X132542174Y-69957615D01*
X132551563Y-69979413D01*
X132560317Y-70001512D01*
X132568424Y-70023904D01*
X132575877Y-70046580D01*
X132582664Y-70069534D01*
X132588778Y-70092756D01*
X132594208Y-70116238D01*
X132598944Y-70139973D01*
X132602978Y-70163952D01*
X132606300Y-70188167D01*
X132608900Y-70212610D01*
X132610769Y-70237272D01*
X132611898Y-70262147D01*
X132612276Y-70287224D01*
X132611632Y-70319885D01*
X132609715Y-70352218D01*
X132606550Y-70384199D01*
X132602162Y-70415805D01*
X132596575Y-70447011D01*
X132589812Y-70477794D01*
X132581900Y-70508129D01*
X132572861Y-70537994D01*
X132562722Y-70567363D01*
X132551505Y-70596213D01*
X132539235Y-70624520D01*
X132525937Y-70652260D01*
X132511636Y-70679410D01*
X132496355Y-70705945D01*
X132480119Y-70731841D01*
X132462952Y-70757075D01*
X132444879Y-70781622D01*
X132425925Y-70805459D01*
X132406113Y-70828562D01*
X132385468Y-70850907D01*
X132364015Y-70872470D01*
X132341778Y-70893227D01*
X132318781Y-70913154D01*
X132295049Y-70932227D01*
X132270606Y-70950423D01*
X132245477Y-70967717D01*
X132219685Y-70984085D01*
X132193257Y-70999504D01*
X132166215Y-71013950D01*
X132138584Y-71027399D01*
X132110389Y-71039826D01*
X132081654Y-71051209D01*
X132069677Y-71093824D01*
X132055999Y-71135693D01*
X132023697Y-71217037D01*
X131985068Y-71294922D01*
X131940433Y-71369029D01*
X131890111Y-71439040D01*
X131834423Y-71504635D01*
X131773689Y-71565495D01*
X131708228Y-71621303D01*
X131638362Y-71671739D01*
X131564410Y-71716485D01*
X131486692Y-71755221D01*
X131405528Y-71787629D01*
X131363755Y-71801360D01*
X131321240Y-71813390D01*
X131278023Y-71823678D01*
X131234145Y-71832186D01*
X131189646Y-71838872D01*
X131144566Y-71843697D01*
X131098945Y-71846621D01*
X131052822Y-71847605D01*
X130060106Y-71847605D01*
X130014065Y-71846618D01*
X129968514Y-71843686D01*
X129923495Y-71838849D01*
X129879048Y-71832148D01*
X129835214Y-71823621D01*
X129792032Y-71813311D01*
X129749544Y-71801256D01*
X129707790Y-71787499D01*
X129666811Y-71772078D01*
X129626647Y-71755034D01*
X129587338Y-71736408D01*
X129548925Y-71716240D01*
X129511449Y-71694571D01*
X129474951Y-71671440D01*
X129439470Y-71646888D01*
X129405047Y-71620956D01*
X129371723Y-71593683D01*
X129339538Y-71565111D01*
X129308533Y-71535279D01*
X129278749Y-71504228D01*
X129250225Y-71471998D01*
X129223003Y-71438629D01*
X129197123Y-71404163D01*
X129172625Y-71368638D01*
X129149550Y-71332097D01*
X129127939Y-71294578D01*
X129107831Y-71256123D01*
X129089269Y-71216771D01*
X129072291Y-71176564D01*
X129056939Y-71135540D01*
X129043253Y-71093742D01*
X129031273Y-71051209D01*
X128974344Y-71027389D01*
X128919671Y-70999466D01*
X128867451Y-70967637D01*
X128817879Y-70932097D01*
X128771150Y-70893040D01*
X128727459Y-70850663D01*
X128687003Y-70805160D01*
X128671214Y-70784508D01*
X129563747Y-70784508D01*
X129564393Y-70810049D01*
X129566310Y-70835254D01*
X129569467Y-70860094D01*
X129573832Y-70884535D01*
X129579375Y-70908548D01*
X129586065Y-70932102D01*
X129593869Y-70955164D01*
X129602757Y-70977704D01*
X129612698Y-70999690D01*
X129623660Y-71021092D01*
X129635612Y-71041878D01*
X129648524Y-71062017D01*
X129662363Y-71081477D01*
X129677099Y-71100229D01*
X129692700Y-71118239D01*
X129709136Y-71135478D01*
X129726375Y-71151914D01*
X129744385Y-71167515D01*
X129763136Y-71182251D01*
X129782597Y-71196090D01*
X129802736Y-71209002D01*
X129823522Y-71220954D01*
X129844924Y-71231916D01*
X129866910Y-71241857D01*
X129889450Y-71250745D01*
X129912512Y-71258549D01*
X129936066Y-71265238D01*
X129960079Y-71270781D01*
X129984521Y-71275147D01*
X130009360Y-71278303D01*
X130034565Y-71280220D01*
X130060106Y-71280866D01*
X131052823Y-71280866D01*
X131078363Y-71280220D01*
X131103569Y-71278303D01*
X131128408Y-71275147D01*
X131152850Y-71270781D01*
X131176863Y-71265238D01*
X131200416Y-71258549D01*
X131223478Y-71250745D01*
X131246018Y-71241857D01*
X131268005Y-71231916D01*
X131289406Y-71220954D01*
X131310192Y-71209002D01*
X131330331Y-71196090D01*
X131349792Y-71182251D01*
X131368543Y-71167515D01*
X131386554Y-71151914D01*
X131403792Y-71135478D01*
X131420228Y-71118239D01*
X131435829Y-71100229D01*
X131450565Y-71081477D01*
X131464405Y-71062017D01*
X131477316Y-71041878D01*
X131489269Y-71021092D01*
X131500231Y-70999690D01*
X131510171Y-70977704D01*
X131519059Y-70955164D01*
X131526864Y-70932102D01*
X131533553Y-70908548D01*
X131539096Y-70884535D01*
X131543461Y-70860094D01*
X131546618Y-70835254D01*
X131548535Y-70810049D01*
X131549181Y-70784508D01*
X129563747Y-70784508D01*
X128671214Y-70784508D01*
X128649976Y-70756728D01*
X128616573Y-70705560D01*
X128586991Y-70651853D01*
X128561423Y-70595802D01*
X128540066Y-70537603D01*
X128523115Y-70477450D01*
X128510766Y-70415539D01*
X128503213Y-70352065D01*
X128500688Y-70288150D01*
X129067389Y-70288150D01*
X129067712Y-70300920D01*
X129068671Y-70313523D01*
X129070249Y-70325942D01*
X129072432Y-70338163D01*
X129075203Y-70350170D01*
X129078548Y-70361946D01*
X129082450Y-70373478D01*
X129086894Y-70384747D01*
X129091864Y-70395741D01*
X129097345Y-70406442D01*
X129103322Y-70416835D01*
X129109777Y-70426904D01*
X129116697Y-70436634D01*
X129124065Y-70446010D01*
X129131866Y-70455015D01*
X129140083Y-70463635D01*
X129148703Y-70471852D01*
X129157708Y-70479653D01*
X129167084Y-70487021D01*
X129176814Y-70493941D01*
X129186883Y-70500396D01*
X129197276Y-70506372D01*
X129207977Y-70511854D01*
X129218971Y-70516824D01*
X129230241Y-70521268D01*
X129241772Y-70525170D01*
X129253548Y-70528515D01*
X129265555Y-70531286D01*
X129277776Y-70533469D01*
X129290195Y-70535047D01*
X129302798Y-70536006D01*
X129315568Y-70536329D01*
X131797360Y-70536329D01*
X131810130Y-70536006D01*
X131822733Y-70535047D01*
X131835152Y-70533469D01*
X131847373Y-70531286D01*
X131859380Y-70528515D01*
X131871156Y-70525170D01*
X131882687Y-70521268D01*
X131893957Y-70516824D01*
X131904951Y-70511854D01*
X131915652Y-70506372D01*
X131926045Y-70500396D01*
X131936114Y-70493941D01*
X131945844Y-70487021D01*
X131955220Y-70479653D01*
X131964225Y-70471852D01*
X131972845Y-70463635D01*
X131981062Y-70455015D01*
X131988863Y-70446010D01*
X131996231Y-70436634D01*
X132003151Y-70426904D01*
X132009607Y-70416835D01*
X132015583Y-70406442D01*
X132021064Y-70395741D01*
X132026034Y-70384747D01*
X132030478Y-70373478D01*
X132034380Y-70361946D01*
X132037725Y-70350170D01*
X132040496Y-70338163D01*
X132042679Y-70325942D01*
X132044257Y-70313523D01*
X132045216Y-70300920D01*
X132045539Y-70288150D01*
X132045216Y-70275380D01*
X132044257Y-70262777D01*
X132042679Y-70250357D01*
X132040496Y-70238136D01*
X132037725Y-70226130D01*
X132034380Y-70214353D01*
X132030478Y-70202822D01*
X132026034Y-70191552D01*
X132021064Y-70180559D01*
X132015583Y-70169858D01*
X132009607Y-70159465D01*
X132003151Y-70149396D01*
X131996231Y-70139665D01*
X131988863Y-70130290D01*
X131981062Y-70121284D01*
X131972845Y-70112665D01*
X131964225Y-70104447D01*
X131955220Y-70096646D01*
X131945844Y-70089278D01*
X131936114Y-70082359D01*
X131926045Y-70075903D01*
X131915652Y-70069927D01*
X131904951Y-70064446D01*
X131893957Y-70059475D01*
X131882687Y-70055031D01*
X131871156Y-70051129D01*
X131859380Y-70047785D01*
X131847373Y-70045013D01*
X131835152Y-70042830D01*
X131822733Y-70041252D01*
X131810130Y-70040294D01*
X131797360Y-70039971D01*
X129315568Y-70039971D01*
X129302798Y-70040294D01*
X129290195Y-70041252D01*
X129277776Y-70042830D01*
X129265555Y-70045013D01*
X129253548Y-70047785D01*
X129241772Y-70051129D01*
X129230241Y-70055031D01*
X129218971Y-70059475D01*
X129207977Y-70064446D01*
X129197276Y-70069927D01*
X129186883Y-70075903D01*
X129176814Y-70082359D01*
X129167084Y-70089278D01*
X129157708Y-70096646D01*
X129148703Y-70104447D01*
X129140083Y-70112665D01*
X129131866Y-70121284D01*
X129124065Y-70130290D01*
X129116697Y-70139665D01*
X129109777Y-70149396D01*
X129103322Y-70159465D01*
X129097345Y-70169858D01*
X129091864Y-70180559D01*
X129086894Y-70191552D01*
X129082450Y-70202822D01*
X129078548Y-70214353D01*
X129075203Y-70226130D01*
X129072432Y-70238136D01*
X129070249Y-70250357D01*
X129068671Y-70262777D01*
X129067712Y-70275380D01*
X129067389Y-70288150D01*
X128500688Y-70288150D01*
X128500652Y-70287224D01*
X128501030Y-70262147D01*
G37*
D10*
X123389238Y-74874380D02*
X122913047Y-74874380D01*
X122913047Y-73874380D01*
X123722571Y-74874380D02*
X123722571Y-74207714D01*
X123722571Y-73874380D02*
X123674952Y-73922000D01*
X123722571Y-73969619D01*
X123770190Y-73922000D01*
X123722571Y-73874380D01*
X123722571Y-73969619D01*
X124198761Y-74874380D02*
X124198761Y-73874380D01*
X124198761Y-74255333D02*
X124294000Y-74207714D01*
X124484476Y-74207714D01*
X124579714Y-74255333D01*
X124627333Y-74302952D01*
X124674952Y-74398190D01*
X124674952Y-74683904D01*
X124627333Y-74779142D01*
X124579714Y-74826761D01*
X124484476Y-74874380D01*
X124294000Y-74874380D01*
X124198761Y-74826761D01*
X125103523Y-74874380D02*
X125103523Y-74207714D01*
X125103523Y-74398190D02*
X125151142Y-74302952D01*
X125198761Y-74255333D01*
X125294000Y-74207714D01*
X125389238Y-74207714D01*
X126151142Y-74874380D02*
X126151142Y-74350571D01*
X126103523Y-74255333D01*
X126008285Y-74207714D01*
X125817809Y-74207714D01*
X125722571Y-74255333D01*
X126151142Y-74826761D02*
X126055904Y-74874380D01*
X125817809Y-74874380D01*
X125722571Y-74826761D01*
X125674952Y-74731523D01*
X125674952Y-74636285D01*
X125722571Y-74541047D01*
X125817809Y-74493428D01*
X126055904Y-74493428D01*
X126151142Y-74445809D01*
X126627333Y-74874380D02*
X126627333Y-74207714D01*
X126627333Y-74398190D02*
X126674952Y-74302952D01*
X126722571Y-74255333D01*
X126817809Y-74207714D01*
X126913047Y-74207714D01*
X127151142Y-74207714D02*
X127389238Y-74874380D01*
X127627333Y-74207714D02*
X127389238Y-74874380D01*
X127294000Y-75112476D01*
X127246380Y-75160095D01*
X127151142Y-75207714D01*
X129246380Y-74874380D02*
X128770190Y-74874380D01*
X128770190Y-73874380D01*
X129579714Y-74874380D02*
X129579714Y-74207714D01*
X129579714Y-73874380D02*
X129532095Y-73922000D01*
X129579714Y-73969619D01*
X129627333Y-73922000D01*
X129579714Y-73874380D01*
X129579714Y-73969619D01*
X130484476Y-74207714D02*
X130484476Y-75017238D01*
X130436857Y-75112476D01*
X130389238Y-75160095D01*
X130294000Y-75207714D01*
X130151142Y-75207714D01*
X130055904Y-75160095D01*
X130484476Y-74826761D02*
X130389238Y-74874380D01*
X130198761Y-74874380D01*
X130103523Y-74826761D01*
X130055904Y-74779142D01*
X130008285Y-74683904D01*
X130008285Y-74398190D01*
X130055904Y-74302952D01*
X130103523Y-74255333D01*
X130198761Y-74207714D01*
X130389238Y-74207714D01*
X130484476Y-74255333D01*
X130960666Y-74874380D02*
X130960666Y-73874380D01*
X131389238Y-74874380D02*
X131389238Y-74350571D01*
X131341619Y-74255333D01*
X131246380Y-74207714D01*
X131103523Y-74207714D01*
X131008285Y-74255333D01*
X130960666Y-74302952D01*
X131722571Y-74207714D02*
X132103523Y-74207714D01*
X131865428Y-73874380D02*
X131865428Y-74731523D01*
X131913047Y-74826761D01*
X132008285Y-74874380D01*
X132103523Y-74874380D01*
X132389238Y-74826761D02*
X132484476Y-74874380D01*
X132674952Y-74874380D01*
X132770190Y-74826761D01*
X132817809Y-74731523D01*
X132817809Y-74683904D01*
X132770190Y-74588666D01*
X132674952Y-74541047D01*
X132532095Y-74541047D01*
X132436857Y-74493428D01*
X132389238Y-74398190D01*
X132389238Y-74350571D01*
X132436857Y-74255333D01*
X132532095Y-74207714D01*
X132674952Y-74207714D01*
X132770190Y-74255333D01*
X133913047Y-74207714D02*
X134151142Y-74874380D01*
X134389238Y-74207714D01*
X135294000Y-74874380D02*
X134722571Y-74874380D01*
X135008285Y-74874380D02*
X135008285Y-73874380D01*
X134913047Y-74017238D01*
X134817809Y-74112476D01*
X134722571Y-74160095D01*
X135722571Y-74779142D02*
X135770190Y-74826761D01*
X135722571Y-74874380D01*
X135674952Y-74826761D01*
X135722571Y-74779142D01*
X135722571Y-74874380D01*
X136389238Y-73874380D02*
X136484476Y-73874380D01*
X136579714Y-73922000D01*
X136627333Y-73969619D01*
X136674952Y-74064857D01*
X136722571Y-74255333D01*
X136722571Y-74493428D01*
X136674952Y-74683904D01*
X136627333Y-74779142D01*
X136579714Y-74826761D01*
X136484476Y-74874380D01*
X136389238Y-74874380D01*
X136294000Y-74826761D01*
X136246380Y-74779142D01*
X136198761Y-74683904D01*
X136151142Y-74493428D01*
X136151142Y-74255333D01*
X136198761Y-74064857D01*
X136246380Y-73969619D01*
X136294000Y-73922000D01*
X136389238Y-73874380D01*
%TO.C,J7*%
X111080380Y-48024333D02*
X111794666Y-48024333D01*
X111937523Y-48071952D01*
X112032761Y-48167190D01*
X112080380Y-48310047D01*
X112080380Y-48405285D01*
X111080380Y-47643380D02*
X111080380Y-46976714D01*
X112080380Y-47405285D01*
%TO.C,J6*%
X111080380Y-71312333D02*
X111794666Y-71312333D01*
X111937523Y-71359952D01*
X112032761Y-71455190D01*
X112080380Y-71598047D01*
X112080380Y-71693285D01*
X111080380Y-70407571D02*
X111080380Y-70598047D01*
X111128000Y-70693285D01*
X111175619Y-70740904D01*
X111318476Y-70836142D01*
X111508952Y-70883761D01*
X111889904Y-70883761D01*
X111985142Y-70836142D01*
X112032761Y-70788523D01*
X112080380Y-70693285D01*
X112080380Y-70502809D01*
X112032761Y-70407571D01*
X111985142Y-70359952D01*
X111889904Y-70312333D01*
X111651809Y-70312333D01*
X111556571Y-70359952D01*
X111508952Y-70407571D01*
X111461333Y-70502809D01*
X111461333Y-70693285D01*
X111508952Y-70788523D01*
X111556571Y-70836142D01*
X111651809Y-70883761D01*
%TO.C,J5*%
X111080380Y-59628333D02*
X111794666Y-59628333D01*
X111937523Y-59675952D01*
X112032761Y-59771190D01*
X112080380Y-59914047D01*
X112080380Y-60009285D01*
X111080380Y-58675952D02*
X111080380Y-59152142D01*
X111556571Y-59199761D01*
X111508952Y-59152142D01*
X111461333Y-59056904D01*
X111461333Y-58818809D01*
X111508952Y-58723571D01*
X111556571Y-58675952D01*
X111651809Y-58628333D01*
X111889904Y-58628333D01*
X111985142Y-58675952D01*
X112032761Y-58723571D01*
X112080380Y-58818809D01*
X112080380Y-59056904D01*
X112032761Y-59152142D01*
X111985142Y-59199761D01*
D12*
%TO.C,U1*%
X127896000Y-59740000D02*
X129546000Y-59740000D01*
X133196000Y-59740000D02*
X133196000Y-49460000D01*
X127896000Y-49460000D02*
X127896000Y-59740000D01*
X131546000Y-59740000D02*
X133196000Y-59740000D01*
X133196000Y-49460000D02*
X127896000Y-49460000D01*
X131546000Y-59740000D02*
G75*
G03*
X129546000Y-59740000I-1000000J0D01*
G01*
%TO.C,J7*%
X122268000Y-37571000D02*
X122518000Y-38071000D01*
X124918000Y-48421000D02*
X124918000Y-38071000D01*
X122318000Y-37571000D02*
X122268000Y-37571000D01*
X117418000Y-37571000D02*
X112318000Y-37571000D01*
X112318000Y-37571000D02*
X112318000Y-48421000D01*
X112318000Y-48421000D02*
X124918000Y-48421000D01*
X122518000Y-38071000D02*
X117118000Y-38071000D01*
X123968000Y-38071000D02*
X124218000Y-37571000D01*
X117118000Y-38071000D02*
X117418000Y-37571000D01*
X124918000Y-38071000D02*
X123968000Y-38071000D01*
X124218000Y-37571000D02*
X122318000Y-37571000D01*
%TO.C,J6*%
X122268000Y-60859000D02*
X122518000Y-61359000D01*
X124918000Y-71709000D02*
X124918000Y-61359000D01*
X122318000Y-60859000D02*
X122268000Y-60859000D01*
X117418000Y-60859000D02*
X112318000Y-60859000D01*
X112318000Y-60859000D02*
X112318000Y-71709000D01*
X112318000Y-71709000D02*
X124918000Y-71709000D01*
X122518000Y-61359000D02*
X117118000Y-61359000D01*
X123968000Y-61359000D02*
X124218000Y-60859000D01*
X117118000Y-61359000D02*
X117418000Y-60859000D01*
X124918000Y-61359000D02*
X123968000Y-61359000D01*
X124218000Y-60859000D02*
X122318000Y-60859000D01*
%TO.C,J5*%
X122268000Y-49175000D02*
X122518000Y-49675000D01*
X124918000Y-60025000D02*
X124918000Y-49675000D01*
X122318000Y-49175000D02*
X122268000Y-49175000D01*
X117418000Y-49175000D02*
X112318000Y-49175000D01*
X112318000Y-49175000D02*
X112318000Y-60025000D01*
X112318000Y-60025000D02*
X124918000Y-60025000D01*
X122518000Y-49675000D02*
X117118000Y-49675000D01*
X123968000Y-49675000D02*
X124218000Y-49175000D01*
X117118000Y-49675000D02*
X117418000Y-49175000D01*
X124918000Y-49675000D02*
X123968000Y-49675000D01*
X124218000Y-49175000D02*
X122318000Y-49175000D01*
%TO.C,J4*%
X136216000Y-47764000D02*
X136216000Y-45864000D01*
X135716000Y-48464000D02*
X135716000Y-47514000D01*
X135716000Y-40664000D02*
X136216000Y-40964000D01*
X135716000Y-47514000D02*
X136216000Y-47764000D01*
X135716000Y-46064000D02*
X135716000Y-40664000D01*
X125366000Y-35864000D02*
X125366000Y-48464000D01*
X136216000Y-35864000D02*
X125366000Y-35864000D01*
X136216000Y-40964000D02*
X136216000Y-35864000D01*
X136216000Y-45864000D02*
X136216000Y-45814000D01*
X125366000Y-48464000D02*
X135716000Y-48464000D01*
X136216000Y-45814000D02*
X135716000Y-46064000D01*
%TO.C,J3*%
X148602000Y-60888000D02*
X146702000Y-60888000D01*
X149302000Y-61388000D02*
X148352000Y-61388000D01*
X141502000Y-61388000D02*
X141802000Y-60888000D01*
X148352000Y-61388000D02*
X148602000Y-60888000D01*
X146902000Y-61388000D02*
X141502000Y-61388000D01*
X136702000Y-71738000D02*
X149302000Y-71738000D01*
X136702000Y-60888000D02*
X136702000Y-71738000D01*
X141802000Y-60888000D02*
X136702000Y-60888000D01*
X146702000Y-60888000D02*
X146652000Y-60888000D01*
X149302000Y-71738000D02*
X149302000Y-61388000D01*
X146652000Y-60888000D02*
X146902000Y-61388000D01*
%TO.C,J2*%
X139352000Y-48898000D02*
X139102000Y-48398000D01*
X136702000Y-38048000D02*
X136702000Y-48398000D01*
X139302000Y-48898000D02*
X139352000Y-48898000D01*
X144202000Y-48898000D02*
X149302000Y-48898000D01*
X149302000Y-48898000D02*
X149302000Y-38048000D01*
X149302000Y-38048000D02*
X136702000Y-38048000D01*
X139102000Y-48398000D02*
X144502000Y-48398000D01*
X137652000Y-48398000D02*
X137402000Y-48898000D01*
X144502000Y-48398000D02*
X144202000Y-48898000D01*
X136702000Y-48398000D02*
X137652000Y-48398000D01*
X137402000Y-48898000D02*
X139302000Y-48898000D01*
%TO.C,J1*%
X139352000Y-60328000D02*
X139102000Y-59828000D01*
X136702000Y-49478000D02*
X136702000Y-59828000D01*
X139302000Y-60328000D02*
X139352000Y-60328000D01*
X144202000Y-60328000D02*
X149302000Y-60328000D01*
X149302000Y-60328000D02*
X149302000Y-49478000D01*
X149302000Y-49478000D02*
X136702000Y-49478000D01*
X139102000Y-59828000D02*
X144502000Y-59828000D01*
X137652000Y-59828000D02*
X137402000Y-60328000D01*
X144502000Y-59828000D02*
X144202000Y-60328000D01*
X136702000Y-59828000D02*
X137652000Y-59828000D01*
X137402000Y-60328000D02*
X139302000Y-60328000D01*
%TD*%
M02*
