%TF.GenerationSoftware,KiCad,Pcbnew,6.0.10-86aedd382b~118~ubuntu22.10.1*%
%TF.CreationDate,2023-02-01T22:33:22-08:00*%
%TF.ProjectId,lightBoard,6c696768-7442-46f6-9172-642e6b696361,rev?*%
%TF.SameCoordinates,Original*%
%TF.FileFunction,Soldermask,Bot*%
%TF.FilePolarity,Negative*%
%FSLAX46Y46*%
G04 Gerber Fmt 4.6, Leading zero omitted, Abs format (unit mm)*
G04 Created by KiCad (PCBNEW 6.0.10-86aedd382b~118~ubuntu22.10.1) date 2023-02-01 22:33:22*
%MOMM*%
%LPD*%
G01*
G04 APERTURE LIST*
G04 Aperture macros list*
%AMRoundRect*
0 Rectangle with rounded corners*
0 $1 Rounding radius*
0 $2 $3 $4 $5 $6 $7 $8 $9 X,Y pos of 4 corners*
0 Add a 4 corners polygon primitive as box body*
4,1,4,$2,$3,$4,$5,$6,$7,$8,$9,$2,$3,0*
0 Add four circle primitives for the rounded corners*
1,1,$1+$1,$2,$3*
1,1,$1+$1,$4,$5*
1,1,$1+$1,$6,$7*
1,1,$1+$1,$8,$9*
0 Add four rect primitives between the rounded corners*
20,1,$1+$1,$2,$3,$4,$5,0*
20,1,$1+$1,$4,$5,$6,$7,0*
20,1,$1+$1,$6,$7,$8,$9,0*
20,1,$1+$1,$8,$9,$2,$3,0*%
G04 Aperture macros list end*
%ADD10C,2.200000*%
%ADD11RoundRect,0.250000X0.450000X-0.262500X0.450000X0.262500X-0.450000X0.262500X-0.450000X-0.262500X0*%
%ADD12RoundRect,0.250000X-0.262500X-0.450000X0.262500X-0.450000X0.262500X0.450000X-0.262500X0.450000X0*%
%ADD13RoundRect,0.250000X-0.450000X0.262500X-0.450000X-0.262500X0.450000X-0.262500X0.450000X0.262500X0*%
%ADD14RoundRect,0.250000X0.262500X0.450000X-0.262500X0.450000X-0.262500X-0.450000X0.262500X-0.450000X0*%
%ADD15R,1.600000X1.600000*%
%ADD16O,1.600000X1.600000*%
%ADD17RoundRect,0.150000X0.587500X0.150000X-0.587500X0.150000X-0.587500X-0.150000X0.587500X-0.150000X0*%
%ADD18RoundRect,0.150000X-0.587500X-0.150000X0.587500X-0.150000X0.587500X0.150000X-0.587500X0.150000X0*%
%ADD19O,3.960000X1.980000*%
%ADD20R,3.960000X1.980000*%
%ADD21R,1.980000X3.960000*%
%ADD22O,1.980000X3.960000*%
G04 APERTURE END LIST*
D10*
%TO.C,REF\u002A\u002A*%
X150368000Y-73660000D03*
%TD*%
%TO.C,REF\u002A\u002A*%
X110236000Y-73914000D03*
%TD*%
%TO.C,REF\u002A\u002A*%
X109728000Y-35814000D03*
%TD*%
%TO.C,REF\u002A\u002A*%
X150498739Y-35814000D03*
%TD*%
D11*
%TO.C,R12*%
X122428000Y-47648500D03*
X122428000Y-45823500D03*
%TD*%
%TO.C,R11*%
X126746000Y-65174500D03*
X126746000Y-63349500D03*
%TD*%
D12*
%TO.C,R10*%
X119991500Y-50038000D03*
X121816500Y-50038000D03*
%TD*%
D11*
%TO.C,R9*%
X124968000Y-45673000D03*
X124968000Y-47498000D03*
%TD*%
D13*
%TO.C,R8*%
X123952000Y-59539500D03*
X123952000Y-61364500D03*
%TD*%
%TO.C,R7*%
X123698000Y-49991000D03*
X123698000Y-51816000D03*
%TD*%
%TO.C,R5*%
X139954000Y-48109500D03*
X139954000Y-49934500D03*
%TD*%
D12*
%TO.C,R4*%
X137263500Y-62230000D03*
X139088500Y-62230000D03*
%TD*%
D14*
%TO.C,R3*%
X137771500Y-68834000D03*
X139596500Y-68834000D03*
%TD*%
D11*
%TO.C,R2*%
X137668000Y-51712500D03*
X137668000Y-49887500D03*
%TD*%
D12*
%TO.C,R1*%
X137454500Y-59738000D03*
X139279500Y-59738000D03*
%TD*%
D15*
%TO.C,U1*%
X134356000Y-58410000D03*
D16*
X134356000Y-55870000D03*
X134356000Y-53330000D03*
X134356000Y-50790000D03*
X126736000Y-50790000D03*
X126736000Y-53330000D03*
X126736000Y-55870000D03*
X126736000Y-58410000D03*
%TD*%
D17*
%TO.C,Q6*%
X121998500Y-42926000D03*
X123873500Y-43876000D03*
X123873500Y-41976000D03*
%TD*%
%TO.C,Q5*%
X124127500Y-63312000D03*
X124127500Y-65212000D03*
X122252500Y-64262000D03*
%TD*%
%TO.C,Q4*%
X123795000Y-53660000D03*
X123795000Y-55560000D03*
X121920000Y-54610000D03*
%TD*%
D18*
%TO.C,Q2*%
X139367500Y-46736000D03*
X137492500Y-45786000D03*
X137492500Y-47686000D03*
%TD*%
%TO.C,Q1*%
X137744500Y-57592000D03*
X137744500Y-55692000D03*
X139619500Y-56642000D03*
%TD*%
D19*
%TO.C,J7*%
X118618000Y-40771000D03*
D20*
X118618000Y-45771000D03*
%TD*%
D19*
%TO.C,J6*%
X118618000Y-64059000D03*
D20*
X118618000Y-69059000D03*
%TD*%
D19*
%TO.C,J5*%
X118618000Y-52375000D03*
D20*
X118618000Y-57375000D03*
%TD*%
D21*
%TO.C,J4*%
X128016000Y-42164000D03*
D22*
X133016000Y-42164000D03*
%TD*%
D20*
%TO.C,J3*%
X143002000Y-69088000D03*
D19*
X143002000Y-64088000D03*
%TD*%
%TO.C,J2*%
X143002000Y-45698000D03*
D20*
X143002000Y-40698000D03*
%TD*%
D19*
%TO.C,J1*%
X143002000Y-57128000D03*
D20*
X143002000Y-52128000D03*
%TD*%
M02*
